<svg width="24" height="22" fill="none" xmlns="http://www.w3.org/2000/svg"><path d="M23.883 9.03l.039-.038s0-.038.039-.077c0-.038 0-.038.039-.076v-.231C23.18 3.981 18.03.5 11.98.5 5.932.5.78 3.98 0 8.571v.268c0 .038 0 .038.039.076 0 .039 0 .039.039.077 0 .038.04.038.04.076l.038.039.04.038.038.038.04.038.038.039s.04.038.078.038c0 0 .04.038.078.038h2.654v10.749h-.624a.693.693 0 00-.703.688c0 .383.312.689.703.689h6.634c.39 0 .702-.306.702-.689a.693.693 0 00-.702-.688h-.586V9.375h6.947v10.748h-.664a.693.693 0 00-.702.688c0 .383.312.689.702.689h6.634c.39 0 .703-.306.703-.689a.693.693 0 00-.703-.688h-.507V9.374h2.615c.039 0 .039 0 .078-.038.039 0 .039-.038.078-.038l.039-.038.039-.039.039-.038.039-.038V9.03zM11.98 1.84c5.034 0 9.365 2.64 10.458 6.235H1.522C2.615 4.44 6.946 1.839 11.98 1.839zm-4.8 18.284H4.448V9.374H7.18v10.749zm12.41 0h-2.733V9.374h2.732v10.749z" fill="#fff"/></svg>