<svg width="24" height="24" fill="none" xmlns="http://www.w3.org/2000/svg"><path d="M3.701 14.581c.35-.157.74 0 .896.355a.681.681 0 01-.35.906c-1.792.789-2.844 1.774-2.844 2.72 0 1.93 4.324 4.098 10.597 4.098s10.636-2.167 10.597-4.098c0-.946-1.013-1.931-2.766-2.68a.682.682 0 01-.35-.907.668.668 0 01.896-.354C22.714 15.645 24 17.025 24 18.56 24 21.637 18.857 24 12 24S0 21.675 0 18.562c0-1.537 1.325-2.956 3.701-3.98zM12 0c4.325 0 7.831 3.547 7.831 7.921 0 3.271-4.09 8.394-6.545 11.153-.312.394-.78.591-1.286.591-.507 0-.974-.236-1.286-.591C8.26 16.315 4.17 11.192 4.17 7.92 4.169 3.547 7.675 0 12 0zm0 1.38c-3.545 0-6.468 2.916-6.468 6.541 0 2.01 2.338 5.833 6.195 10.207.078.118.234.118.273.118.039 0 .156 0 .273-.118 3.896-4.374 6.195-8.197 6.195-10.207 0-3.625-2.922-6.542-6.468-6.542z" fill="#fff"/></svg>