<svg width="20" height="20" fill="none" xmlns="http://www.w3.org/2000/svg"><path d="M19.416 9.11H3.832V2.779a.74.74 0 01.746-.759h2.5v.957a1.446 1.446 0 00-1.234 1.417v1.451c0 .33.26.594.585.594h2.305a.587.587 0 00.584-.594v-1.45c0-.66-.454-1.22-1.071-1.385V1.427c0-.33-.26-.594-.585-.594H4.578c-1.039 0-1.883.858-1.883 1.913v6.33H.584A.587.587 0 000 9.67c0 .33.26.594.584.594h.78v2.638c0 1.945 1.428 3.56 3.279 3.825l-.714 1.615a.57.57 0 00.292.759.595.595 0 00.227.066.578.578 0 00.52-.33l.909-2.044h9.156l.909 2.044c.097.23.292.33.519.33.065 0 .162 0 .227-.066a.57.57 0 00.293-.759l-.812-1.813a3.913 3.913 0 002.467-3.627v-2.638h.78A.587.587 0 0020 9.67a.58.58 0 00-.584-.56zM8.149 5.285H6.981v-.89c0-.165.13-.297.292-.297h.584c.162 0 .292.132.292.296v.89zm9.351 7.617c0 1.483-1.201 2.736-2.695 2.736h-9.61c-1.461 0-2.695-1.22-2.695-2.736v-2.638h15v2.638z" fill="#45525B"/></svg>