<svg width="18" height="20" fill="none" xmlns="http://www.w3.org/2000/svg"><path d="M17.654 13.28s0-.033 0 0v-.033l-2.71-6.007V1.98C14.945.91 14.085 0 13 0H4.969C3.916 0 3.023.877 3.023 1.98v5.26l-2.71 6.007a.61.61 0 00-.063.227v5.942c0 .324.255.584.574.584.319 0 .574-.26.574-.584v-1.721h15.204v1.72c0 .325.256.585.574.585.319 0 .574-.26.574-.584v-5.942c-.064-.065-.064-.13-.096-.195zM3.948 7.921h10.04l2.264 5H1.716l2.232-5zm.223-5.941A.83.83 0 015 1.136h8a.83.83 0 01.83.845v4.805H4.17V1.98zM1.398 16.558v-2.5h15.204v2.5H1.398z" fill="#45525B"/></svg>