<svg width="16" height="20" fill="none" xmlns="http://www.w3.org/2000/svg"><path d="M13.22 0c.996 0 1.831.813 1.863 1.854v16.26c0 1.04-.835 1.886-1.863 1.886H2.78a1.876 1.876 0 01-1.863-1.886V1.854C.917.813 1.752 0 2.747 0H13.22zm-.032 1.106H2.748a.752.752 0 00-.74.748v16.26c0 .423.354.748.74.748h10.44a.752.752 0 00.739-.748V1.854a.752.752 0 00-.739-.748zm-1.703 7.577a1.11 1.11 0 011.093 1.106 1.09 1.09 0 01-1.093 1.105 1.09 1.09 0 01-1.092-1.105 1.09 1.09 0 011.092-1.106z" fill="#45525B"/></svg>