<svg width="160" height="58" fill="none" xmlns="http://www.w3.org/2000/svg"><path fill-rule="evenodd" clip-rule="evenodd" d="M90.342 38.533c2.219 0 3.989.561 5.312 1.684 1.322 1.124 2.05 2.638 2.185 4.544h-4.505c-.067-.75-.376-1.345-.924-1.786-.55-.444-1.284-.664-2.202-.664-.853 0-1.508.158-1.968.476-.459.318-.69.76-.69 1.327 0 .636.316 1.118.942 1.448.628.328 1.603.663 2.926 1.003 1.345.34 2.455.693 3.329 1.056a5.874 5.874 0 012.268 1.683c.638.76.97 1.765.992 3.013 0 1.088-.297 2.065-.891 2.927-.594.862-1.446 1.537-2.556 2.025-1.11.487-2.403.73-3.882.73-1.525 0-2.892-.278-4.101-.833-1.21-.555-2.17-1.31-2.875-2.262a5.79 5.79 0 01-1.16-3.166h4.74c.09.727.443 1.328 1.06 1.804.615.477 1.383.715 2.302.715.896 0 1.598-.181 2.101-.544.505-.363.757-.828.757-1.396 0-.612-.308-1.073-.925-1.379-.616-.307-1.596-.64-2.941-1.003-1.39-.341-2.527-.693-3.412-1.056a5.931 5.931 0 01-2.287-1.667c-.639-.75-.958-1.759-.958-3.03 0-1.043.297-1.996.89-2.858.595-.863 1.447-1.543 2.556-2.043 1.11-.499 2.415-.748 3.917-.748zm27.837 0c1.388 0 2.605.285 3.647.85 1.043.569 1.877 1.283 2.505 2.145V38.84h4.74v18.854h-4.74v-2.758c-.605.886-1.44 1.618-2.505 2.195-1.064.58-2.292.869-3.682.869-1.569 0-2.997-.409-4.285-1.226-1.29-.815-2.31-1.967-3.061-3.453-.751-1.486-1.125-3.194-1.125-5.123 0-1.906.374-3.595 1.125-5.07.751-1.474 1.771-2.608 3.061-3.404 1.288-.793 2.727-1.19 4.32-1.19zm32.643 0c1.77 0 3.357.385 4.758 1.157a8.112 8.112 0 013.261 3.285c.773 1.418 1.159 3.045 1.159 4.884 0 .68-.045 1.292-.134 1.838H146.25c.112 1.36.583 2.427 1.412 3.199.829.771 1.849 1.156 3.059 1.156 1.748 0 2.993-.759 3.732-2.28h5.076c-.537 1.816-1.569 3.307-3.093 4.476S153.041 58 150.822 58c-1.794 0-3.401-.403-4.825-1.208-1.423-.806-2.532-1.945-3.328-3.42-.795-1.475-1.193-3.177-1.193-5.106 0-1.95.391-3.663 1.177-5.14.783-1.473 1.882-2.607 3.295-3.402 1.411-.793 3.037-1.19 4.874-1.19zm-69.525-4.63v3.881h-8.909v5.957h7.902v3.777h-7.902v6.295h8.91v3.88H67.681v-23.79h13.615zm24.039.273v4.663h4.169v3.914h-4.169v9.121c0 .635.151 1.095.453 1.379.303.284.813.425 1.531.425h2.185v4.016h-2.96c-3.967 0-5.95-1.952-5.95-5.854v-9.087h-2.22v-3.914h2.22v-4.663h4.741zm31.805 0v4.663h4.168v3.914h-4.168v9.121c0 .635.15 1.095.453 1.379.303.284.812.425 1.53.425h2.185v4.016h-2.959c-3.967 0-5.951-1.952-5.951-5.854v-9.087h-2.219v-3.914h2.219v-4.663h4.742zm-17.753 8.544a4.71 4.71 0 00-2.42.647c-.74.43-1.339 1.06-1.799 1.887-.459.83-.689 1.81-.689 2.944 0 1.135.23 2.127.689 2.979.46.85 1.065 1.502 1.816 1.956.751.455 1.552.68 2.403.68a4.81 4.81 0 002.456-.663c.76-.441 1.366-1.077 1.815-1.905.447-.828.672-1.822.672-2.98 0-1.156-.225-2.148-.672-2.977-.449-.828-1.055-1.463-1.815-1.905a4.81 4.81 0 00-2.456-.663zm31.3-.273c-1.166 0-2.146.357-2.943 1.072-.794.715-1.282 1.707-1.462 2.977h8.843c-.024-1.224-.46-2.206-1.312-2.942-.851-.739-1.894-1.107-3.126-1.107zM32.72 0l23.65 23.995v33.699h-5.49V26.293L28.835 3.933 32.72 0zM17.204 15.728l17.203 17.46v24.506H0V33.187l17.205-17.46zm7.757-7.864L45.394 28.59v29.103h-5.487V30.889L21.089 11.796l3.873-3.932z" fill="#fff"/></svg>