<svg width="128" height="102" fill="none" xmlns="http://www.w3.org/2000/svg"><path fill-rule="evenodd" clip-rule="evenodd" d="M31.418 75.263c3.076 0 5.53.77 7.365 2.313 1.834 1.542 2.843 3.623 3.031 6.24h-6.248c-.093-1.029-.52-1.847-1.28-2.454-.763-.608-1.782-.91-3.054-.91-1.182 0-2.09.217-2.728.654-.637.435-.955 1.044-.955 1.822 0 .873.436 1.535 1.304 1.988.87.45 2.223.911 4.057 1.379 1.865.466 3.403.95 4.615 1.449 1.212.498 2.26 1.268 3.145 2.313.886 1.044 1.345 2.423 1.375 4.137 0 1.494-.412 2.835-1.234 4.02-.824 1.183-2.005 2.112-3.544 2.781-1.538.67-3.332 1.005-5.383 1.005-2.114 0-4.01-.383-5.686-1.145-1.679-.763-3.008-1.8-3.987-3.108-.979-1.309-1.514-2.758-1.608-4.348h6.573c.124.998.613 1.824 1.469 2.478.853.655 1.918.981 3.192.981 1.243 0 2.215-.249 2.914-.747.7-.498 1.048-1.137 1.048-1.917 0-.841-.427-1.473-1.282-1.893-.854-.422-2.213-.88-4.078-1.379-1.927-.467-3.503-.95-4.73-1.45a8.221 8.221 0 01-3.172-2.289c-.886-1.03-1.328-2.415-1.328-4.162a6.73 6.73 0 011.235-3.925c.824-1.185 2.005-2.12 3.543-2.806 1.539-.685 3.348-1.028 5.43-1.028zm38.596 0c1.925 0 3.612.39 5.057 1.168 1.445.78 2.603 1.76 3.473 2.944v-3.692h6.572v25.897h-6.572v-3.788c-.838 1.216-1.997 2.222-3.473 3.015-1.476.795-3.177 1.193-5.104 1.193-2.175 0-4.156-.561-5.943-1.684-1.788-1.12-3.201-2.702-4.243-4.743-1.041-2.041-1.56-4.386-1.56-7.036 0-2.617.519-4.938 1.56-6.965 1.042-2.024 2.455-3.581 4.243-4.673 1.787-1.09 3.783-1.636 5.99-1.636zm45.261 0c2.454 0 4.654.528 6.596 1.588a11.19 11.19 0 014.522 4.512C127.465 83.31 128 85.545 128 88.07c0 .934-.063 1.775-.186 2.524h-18.879c.156 1.87.809 3.334 1.958 4.394 1.149 1.059 2.565 1.588 4.241 1.588 2.424 0 4.15-1.043 5.174-3.13h7.04c-.746 2.492-2.176 4.542-4.289 6.147-2.113 1.605-4.708 2.406-7.784 2.406-2.487 0-4.716-.554-6.69-1.659-1.973-1.107-3.511-2.672-4.615-4.698-1.102-2.025-1.654-4.363-1.654-7.013 0-2.678.543-5.03 1.631-7.058 1.087-2.024 2.61-3.582 4.569-4.674 1.958-1.09 4.211-1.635 6.759-1.635zm-96.396-6.359v5.33H6.525v8.18H17.48v5.19H6.525v8.646h12.354v5.329H0V68.905h18.879zm33.329.375v6.404h5.78v5.375h-5.78v12.53c0 .87.208 1.502.628 1.892.42.39 1.127.584 2.122.584h3.03v5.515h-4.103c-5.501 0-8.252-2.68-8.252-8.04V81.06h-3.076v-5.376h3.076V69.28h6.575zm44.097 0v6.404h5.78v5.375h-5.78v12.53c0 .87.209 1.502.628 1.892.42.39 1.127.584 2.122.584h3.03v5.515h-4.103c-5.5 0-8.251-2.68-8.251-8.04V81.06h-3.076v-5.376h3.076V69.28h6.574zM71.691 81.013a6.57 6.57 0 00-3.355.888c-1.026.592-1.857 1.457-2.495 2.593-.637 1.139-.955 2.485-.955 4.043 0 1.56.318 2.921.955 4.091.638 1.168 1.477 2.064 2.517 2.688a6.374 6.374 0 003.333.934 6.717 6.717 0 003.405-.911c1.054-.607 1.894-1.48 2.517-2.617.62-1.138.93-2.501.93-4.091 0-1.59-.31-2.952-.93-4.09-.623-1.138-1.463-2.01-2.517-2.617a6.717 6.717 0 00-3.405-.911zm43.397-.375c-1.615 0-2.976.49-4.079 1.472-1.103.982-1.779 2.346-2.028 4.09h12.261c-.033-1.682-.638-3.03-1.82-4.042-1.179-1.014-2.625-1.52-4.334-1.52z" fill="#45525B"/><path fill-rule="evenodd" clip-rule="evenodd" d="M68.459 0L91.71 23.37v32.821h-5.396V25.608L64.64 3.83 68.459 0zM53.205 15.318l16.914 17.005v23.868H36.29V32.323l16.916-17.005zm7.627-7.66L80.92 27.847v28.345h-5.396V30.084L57.023 11.49l3.808-3.83z" fill="#FF8A63"/></svg>