<svg width="102" height="37" fill="none" xmlns="http://www.w3.org/2000/svg"><path fill-rule="evenodd" clip-rule="evenodd" d="M57.593 24.582c1.414 0 2.543.358 3.386 1.074.843.716 1.308 1.683 1.394 2.898H59.5c-.042-.478-.239-.857-.589-1.139-.35-.283-.818-.423-1.404-.423-.543 0-.96.1-1.254.303a.973.973 0 00-.44.847c0 .405.201.713.6.923.401.21 1.023.423 1.866.64.858.217 1.565.442 2.122.674a3.743 3.743 0 011.446 1.074c.407.485.618 1.125.632 1.921a3.22 3.22 0 01-.568 1.868c-.378.55-.921.98-1.629 1.291-.707.311-1.532.467-2.475.467-.972 0-1.843-.178-2.614-.532-.772-.354-1.383-.835-1.833-1.443a3.695 3.695 0 01-.74-2.02h3.023c.056.464.282.847.675 1.151.392.304.882.456 1.468.456.57 0 1.018-.116 1.339-.347.322-.231.483-.528.483-.89 0-.39-.197-.684-.59-.88-.393-.196-1.018-.408-1.875-.64-.886-.217-1.611-.442-2.175-.673a3.78 3.78 0 01-1.458-1.064c-.407-.478-.61-1.122-.61-1.933 0-.665.189-1.273.567-1.823.379-.55.922-.984 1.63-1.303.706-.318 1.538-.477 2.496-.477zm17.746 0c.885 0 1.66.181 2.325.542.665.363 1.197.818 1.597 1.368v-1.715h3.022v12.028H79.26v-1.76c-.386.565-.918 1.032-1.597 1.4-.678.37-1.46.555-2.347.555-1 0-1.91-.26-2.732-.782-.822-.52-1.472-1.255-1.951-2.203-.479-.948-.718-2.037-.718-3.268 0-1.216.24-2.294.718-3.235.479-.94 1.129-1.663 1.951-2.17.822-.507 1.739-.76 2.754-.76zm20.81 0c1.128 0 2.14.245 3.033.737a5.176 5.176 0 012.079 2.096c.493.905.739 1.943.739 3.116 0 .434-.029.824-.085 1.172h-8.68c.07.869.37 1.549.9 2.04.528.493 1.178.738 1.95.738 1.114 0 1.908-.484 2.379-1.454h3.236a5.479 5.479 0 01-1.972 2.855c-.971.746-2.164 1.118-3.58 1.118-1.142 0-2.167-.257-3.075-.77a5.399 5.399 0 01-2.122-2.182c-.506-.941-.76-2.027-.76-3.258 0-1.243.25-2.336.75-3.278.5-.94 1.2-1.663 2.1-2.17.9-.507 1.937-.76 3.108-.76zm-44.322-2.954v2.476h-5.68v3.8h5.038v2.41h-5.038v4.015h5.68v2.476h-8.68V21.628h8.68zm15.325.174v2.975h2.657v2.496h-2.657v5.82c0 .404.096.697.289.879.193.18.517.27.975.27h1.393v2.563h-1.886c-2.53 0-3.794-1.245-3.794-3.734v-5.797h-1.415v-2.497h1.415v-2.975h3.023zm20.275 0v2.975h2.657v2.496h-2.657v5.82c0 .404.096.697.289.879.193.18.518.27.976.27h1.393v2.563h-1.887c-2.53 0-3.794-1.245-3.794-3.734v-5.797H82.99v-2.497h1.414v-2.975h3.023zm-11.317 5.45c-.558 0-1.071.137-1.543.413-.472.275-.853.677-1.147 1.204-.293.53-.439 1.154-.439 1.878s.146 1.357.44 1.9c.292.543.678.959 1.157 1.249.479.29.99.433 1.532.433.557 0 1.079-.14 1.565-.423a3.05 3.05 0 001.158-1.215c.285-.529.428-1.162.428-1.9s-.143-1.372-.428-1.9a3.05 3.05 0 00-1.158-1.216 3.064 3.064 0 00-1.565-.422zm19.954-.174c-.744 0-1.369.228-1.876.684-.507.456-.818 1.09-.932 1.9h5.637c-.015-.781-.293-1.408-.837-1.878-.542-.47-1.207-.706-1.992-.706z" fill="#45525B"/><path fill-rule="evenodd" clip-rule="evenodd" d="M20.859 0l15.076 15.307v21.498h-3.498V16.773L18.383 2.508 20.858 0zm-9.891 10.033l10.967 11.138v15.634H0V21.17l10.968-11.138zm4.945-5.016L28.94 18.239v18.565h-3.498V19.705L13.444 7.525l2.47-2.508z" fill="#FF8A63"/></svg>