<svg width="18" height="18" fill="none" xmlns="http://www.w3.org/2000/svg"><path d="M17.932 6.78c-.12-.36-.42-.63-.78-.69l-5.01-.78L9.892.57a.986.986 0 00-.9-.57c-.39 0-.72.21-.87.57l-2.25 4.77-5.04.81c-.36.06-.66.33-.78.69-.12.36-.03.78.24 1.05l3.63 3.72-.84 5.19c-.06.39.09.78.42 1.02.18.12.36.18.54.18.15 0 .33-.03.45-.12l4.5-2.46 4.47 2.43c.33.18.72.15 1.02-.06.33-.24.48-.63.42-1.02l-.84-5.22 3.63-3.72c.27-.27.36-.69.24-1.05zm-.69.63l-3.6 3.72c-.12.12-.18.33-.15.51l.84 5.22c.03.21-.06.36-.18.42-.06.03-.21.12-.39.03l-4.5-2.43a.574.574 0 00-.54 0l-4.5 2.46c-.18.09-.33.03-.39-.03a.467.467 0 01-.18-.42l.87-5.19a.616.616 0 00-.15-.51L.742 7.47a.46.46 0 01-.12-.45c.06-.15.15-.24.3-.27l5.04-.81c.18-.03.36-.15.42-.33L8.632.84c.09-.15.21-.24.36-.24s.27.09.33.24l2.25 4.77c.09.18.24.3.42.33l5.01.78c.15.03.27.12.3.27.09.09.09.3-.06.42z" fill="#52503B"/></svg>